<svg xmlns="http://www.w3.org/2000/svg" width="1600" height="200" viewBox="0 0 1600 400" preserveAspectRatio="xMidYMid slice">
  <defs>
    <linearGradient id="navg" x1="0" x2="0" y1="0" y2="1">
      <stop offset="0%" stop-color="#7c6f57" stop-opacity="0.9"/>
      <stop offset="100%" stop-color="#7c6f57" stop-opacity="0.75"/>
    </linearGradient>
    <linearGradient id="g2" x1="0" x2="1">
      <stop offset="0%" stop-color="#f5e9da" stop-opacity="0.1"/>
      <stop offset="100%" stop-color="#b7b7a4" stop-opacity="0.06"/>
    </linearGradient>
  </defs>
  <rect width="100%" height="100%" fill="url(#navg)"/>
  <rect width="100%" height="100%" fill="url(#g2)"/>
  <!-- Ship silhouette on the left -->
  <g transform="translate(50,30) scale(0.9)" fill="#c6b89a" opacity="0.06">
    <path d="M200 100 L350 100 L380 120 L420 110 L390 70 L350 70 L320 80 Z"/>
    <path d="M80 160 C120 140, 180 140, 240 160 C300 180, 360 180, 420 160 L420 180 L80 180 Z"/>
    <path d="M280 60 L260 90 L280 95 L310 80 Z"/>
    <!-- stylized mast -->
    <rect x="180" y="30" width="6" height="120" rx="3"/>
  </g>
  <!-- subtle texture -->
  <g opacity="0.02" fill="#000">
    <circle cx="1200" cy="40" r="2" />
    <circle cx="800" cy="120" r="1" />
    <circle cx="1050" cy="70" r="1.5" />
  </g>
</svg>